HIERARCHY
ROOT pelvis
{
  OFFSET 0 100 0
  CHANNELS 6 Xposition Yposition Zposition Zrotation Xrotation Yrotation
  JOINT pelvis_right_femur
  {
    OFFSET -10.78128 -3.44521 -0.5502486
    CHANNELS 3 Zrotation Xrotation Yrotation
    JOINT right_femur_tibia
    {
      OFFSET -0.8047443 -44.0398 -0.1307829
      CHANNELS 3 Zrotation Xrotation Yrotation
      JOINT right_tibia_foot
      {
        OFFSET 3.006224 -47.83518 -5
        CHANNELS 3 Zrotation Xrotation Yrotation
        End Site
        {
          OFFSET 0 -5 15
        }
      }
    }
  }
  JOINT pelvis_left_femur
  {
    OFFSET 10.78128 -3.44521 -0.5502486
    CHANNELS 3 Zrotation Xrotation Yrotation
    JOINT left_femur_tibia
    {
      OFFSET 0.8047443 -44.0398 -0.1307829
      CHANNELS 3 Zrotation Xrotation Yrotation
      JOINT left_tibia_foot
      {
        OFFSET -4.370144 -48.10324 -4.275266
        CHANNELS 3 Zrotation Xrotation Yrotation
        End Site
        {
          OFFSET 0 -5 15
        }
      }
    }
  }
  JOINT pelvis_spine1
  {
    OFFSET 0 6.468898 -3.129235
    CHANNELS 3 Zrotation Xrotation Yrotation
    JOINT spine1
    {
      OFFSET 0 23.15396 4.99043
      CHANNELS 3 Zrotation Xrotation Yrotation
      JOINT spine2
      {
        OFFSET 0 20.79997 -5.064912
        CHANNELS 3 Zrotation Xrotation Yrotation
        JOINT neck
        {
          OFFSET 0 14.38658 9.616178
          CHANNELS 3 Zrotation Xrotation Yrotation
          End Site
          {
            OFFSET 0 20 0
          }
        }
      }
      JOINT right_manubrium
      {
        OFFSET -5.722621 16.35077 3.967754
        CHANNELS 3 Zrotation Xrotation Yrotation
        JOINT right_clavicle
        {
          OFFSET -13.16364 1.694482 -4.693211
          CHANNELS 3 Zrotation Xrotation Yrotation
          JOINT right_humerus
          {
            OFFSET -28.5034 -0.3100689 -2.792744
            CHANNELS 3 Zrotation Xrotation Yrotation
            JOINT right_radius
            {
              OFFSET -25.15693 0.02248979 -1.271978
              CHANNELS 3 Zrotation Xrotation Yrotation
              End Site
              {
                OFFSET -15 0 0
              }
            }
          }
        }
      }
      JOINT left_manubrium
      {
        OFFSET 5.722621 16.35077 3.967754
        CHANNELS 3 Zrotation Xrotation Yrotation
        JOINT left_clavicle
        {
          OFFSET 13.16364 1.694482 -4.693211
          CHANNELS 3 Zrotation Xrotation Yrotation
          JOINT left_humerus
          {
            OFFSET 29.39168 -1.063119 -2.237045
            CHANNELS 3 Zrotation Xrotation Yrotation
            JOINT left_radius
            {
              OFFSET 24.59957 -0.9528479 0.9047498
              CHANNELS 3 Zrotation Xrotation Yrotation
              End Site
              {
                OFFSET 15 -0 -0
              }
            }
          }
        }
      }
    }
  }
}
MOTION
Frames: 13
Frame Time: 0.0416666666667
-281.0006 122.7537 -201.678 6.416061 -7.305107 53.7698 6.464229 15.18782 5.08734 -0 20.84251 -0 -7.6217 -17.44932 -4.267911 5.662829 -16.17153 -2.517279 -0 5.676332 -0 5.202957 -0.5977279 14.34378 2.412211 -4.24394 7.814391 0.1960738 17.04806 -6.675502 1.840443 17.15106 -0.2102944 -2.801026 -19.50992 4.833041 -2.816619 -34.57736 11.93306 89.47056 15.11031 -7.404003 -0 0 33.84693 -22.85632 20.93983 17.45116 -0.1328433 -20.92116 -6.866128 -92.35053 11.18849 39.12451 0 0 -11.53767 3.502405 12.67227 9.610307
-275.4628 122.7152 -199.1412 6.331924 -7.378046 53.11122 6.46419 15.18765 5.087547 -0 20.84293 -0 -7.6217 -17.44949 -4.268064 5.662818 -16.17158 -2.517247 -0 5.676708 -0 5.203213 -0.5976034 14.34372 2.412208 -4.243935 7.814438 0.1960411 17.0481 -6.675522 1.840447 17.15099 -0.210345 -2.80109 -19.50987 4.833033 -2.816596 -34.57739 11.93308 89.47061 15.11052 -7.404037 -0 0 33.84694 -22.85619 20.93989 17.45113 -0.1329844 -20.92116 -6.866172 -92.35029 11.18841 39.12454 0 0 -11.53812 3.502365 12.67213 9.610503
-269.9544 122.6767 -196.541 6.246888 -7.449993 52.45243 6.464151 15.18749 5.08773 -0 20.84328 -0 -7.621699 -17.44969 -4.268172 5.662814 -16.17169 -2.517211 -0 5.676968 -0 5.203463 -0.5974788 14.34367 2.412196 -4.243932 7.81448 0.19602 17.04813 -6.675549 1.840433 17.15092 -0.2103726 -2.801142 -19.50985 4.833028 -2.816534 -34.57741 11.9331 89.47059 15.11081 -7.404058 -0 0 33.84695 -22.85606 20.93994 17.4511 -0.1330981 -20.92116 -6.866179 -92.35004 11.18834 39.12456 0 0 -11.53852 3.502396 12.67198 9.610593
-264.4763 122.6383 -193.8778 6.160971 -7.520939 51.79345 6.464115 15.18736 5.08788 -0 20.84357 -0 -7.621695 -17.44991 -4.268231 5.662817 -16.17184 -2.517173 -0 5.677099 -0 5.20369 -0.5973623 14.34363 2.412175 -4.24393 7.814514 0.1960114 17.04814 -6.675582 1.840404 17.15086 -0.2103764 -2.801178 -19.50986 4.833026 -2.816438 -34.57742 11.93313 89.47052 15.11117 -7.404064 -0 0 33.84695 -22.85592 20.93999 17.45106 -0.1331782 -20.92116 -6.866148 -92.34982 11.18826 39.12457 0 0 -11.53885 3.502496 12.67184 9.610575
-259.029 122.5999 -191.1519 6.074189 -7.590879 51.13427 6.464082 15.18726 5.087986 -0 20.84376 -0 -7.62169 -17.45012 -4.268238 5.662827 -16.17202 -2.517135 -0 5.677099 -0 5.20388 -0.5972609 14.34359 2.412148 -4.243929 7.814538 0.1960153 17.04813 -6.675617 1.84036 17.15081 -0.2103569 -2.801197 -19.5099 4.833027 -2.816317 -34.57741 11.93317 89.47039 15.11157 -7.404056 -0 0 33.84693 -22.85578 20.94002 17.45103 -0.1332209 -20.92117 -6.866084 -92.34964 11.18819 39.12455 0 0 -11.53908 3.502653 12.67172 9.610454
-253.6134 122.5615 -188.3638 5.986562 -7.65981 50.4749 6.464057 15.1872 5.088045 -0 20.84386 -0 -7.621684 -17.45033 -4.268195 5.662842 -16.17222 -2.5171 -0 5.676973 -0 5.204024 -0.5971807 14.34357 2.412117 -4.243929 7.814551 0.1960311 17.0481 -6.675652 1.840307 17.15078 -0.2103165 -2.801199 -19.50996 4.833031 -2.816178 -34.57738 11.93322 89.47022 15.11198 -7.404035 -0 0 33.84691 -22.85566 20.94004 17.451 -0.1332249 -20.92117 -6.865992 -92.3495 11.18813 39.12452 0 0 -11.53922 3.502857 12.67162 9.610244
-248.2302 122.5231 -185.5137 5.898113 -7.72773 49.81535 6.464039 15.18718 5.088054 -0 20.84385 -0 -7.621677 -17.45051 -4.268106 5.662862 -16.17242 -2.517071 -0 5.676733 -0 5.204113 -0.5971259 14.34355 2.412083 -4.243931 7.814553 0.1960572 17.04805 -6.675685 1.840248 17.15075 -0.2102585 -2.801184 -19.51004 4.833037 -2.816031 -34.57734 11.93326 89.47003 15.11238 -7.404004 -0 0 33.84688 -22.85556 20.94005 17.45097 -0.1331916 -20.92117 -6.865879 -92.34941 11.18808 39.12448 0 0 -11.53925 3.503091 12.67156 9.609959
-242.88 122.4846 -182.6021 5.808862 -7.794635 49.1556 6.46403 15.1872 5.088015 -0 20.84375 -0 -7.621669 -17.45066 -4.26798 5.662885 -16.17261 -2.517048 -0 5.676401 -0 5.204144 -0.5970992 14.34355 2.412049 -4.243934 7.814544 0.1960916 17.04799 -6.675715 1.840186 17.15075 -0.2101875 -2.801153 -19.51013 4.833045 -2.815887 -34.5773 11.9333 89.46982 15.11274 -7.403963 -0 0 33.84685 -22.85549 20.94004 17.45095 -0.1331245 -20.92117 -6.865753 -92.34938 11.18805 39.12443 0 0 -11.53917 3.50334 12.67153 9.609623
-237.5635 122.4462 -179.6293 5.71883 -7.860525 48.49567 6.464029 15.18725 5.087932 -0 20.84356 -0 -7.621662 -17.45076 -4.267825 5.66291 -16.17278 -2.517033 -0 5.676 -0 5.204118 -0.597101 14.34356 2.412017 -4.243938 7.814524 0.1961316 17.04793 -6.675738 1.840126 17.15076 -0.2101084 -2.80111 -19.51023 4.833055 -2.815755 -34.57725 11.93334 89.4696 15.11304 -7.403917 -0 0 33.84681 -22.85545 20.94001 17.45093 -0.1330293 -20.92117 -6.865623 -92.34941 11.18804 39.12437 0 0 -11.539 3.503587 12.67153 9.609259
-232.2815 122.4077 -176.5958 5.628038 -7.925397 47.83554 6.464038 15.18734 5.087812 -0 20.8433 -0 -7.621656 -17.45082 -4.267654 5.662934 -16.17292 -2.517027 -0 5.67556 -0 5.204037 -0.5971302 14.34358 2.411989 -4.243942 7.814497 0.1961744 17.04786 -6.675755 1.840072 17.15078 -0.2100268 -2.801057 -19.51033 4.833065 -2.815642 -34.57719 11.93337 89.4694 15.11326 -7.403868 -0 0 33.84678 -22.85544 20.93998 17.45092 -0.1329134 -20.92117 -6.865498 -92.34949 11.18804 39.12431 0 0 -11.53875 3.503816 12.67157 9.608891
-227.0346 122.3692 -173.5019 5.536506 -7.989249 47.17521 6.464054 15.18746 5.087665 -0 20.84299 -0 -7.62165 -17.45082 -4.267477 5.662956 -16.17303 -2.517029 -0 5.67511 -0 5.203911 -0.5971837 14.34361 2.411967 -4.243947 7.814463 0.1962173 17.04779 -6.675764 1.840027 17.15081 -0.209948 -2.800999 -19.51042 4.833075 -2.815555 -34.57714 11.93339 89.46923 15.11339 -7.40382 -0 0 33.84675 -22.85546 20.93994 17.45092 -0.1327849 -20.92117 -6.865384 -92.34961 11.18806 39.12425 0 0 -11.53843 3.504013 12.67163 9.608544
-221.8236 122.3306 -170.348 5.444249 -8.052076 46.51468 6.464076 15.18759 5.087501 -0 20.84265 -0 -7.621646 -17.45078 -4.267307 5.662975 -16.17308 -2.51704 -0 5.674681 -0 5.203748 -0.5972572 14.34364 2.411952 -4.243951 7.814426 0.1962573 17.04773 -6.675764 1.839993 17.15086 -0.209877 -2.800938 -19.51051 4.833085 -2.815499 -34.5771 11.9334 89.46909 15.11343 -7.403776 -0 0 33.84672 -22.85551 20.93989 17.45093 -0.1326528 -20.92117 -6.86529 -92.34977 11.1881 39.1242 0 0 -11.53808 3.504167 12.67172 9.608238
-216.649 122.2921 -167.1345 5.351284 -8.113872 45.85395 6.464103 15.18773 5.087331 -0 20.84231 -0 -7.621643 -17.45069 -4.267154 5.66299 -16.17309 -2.517058 -0 5.674299 -0 5.20356 -0.5973451 14.34368 2.411945 -4.243956 7.814387 0.1962921 17.04768 -6.675757 1.839972 17.15091 -0.209818 -2.80088 -19.51057 4.833093 -2.815476 -34.57706 11.9334 89.46899 15.11337 -7.403738 -0 0 33.8467 -22.85558 20.93984 17.45095 -0.1325257 -20.92117 -6.86522 -92.34995 11.18815 39.12416 0 0 -11.53772 3.504268 12.67183 9.607993
